<svg id="visual" viewBox="0 0 675 900" width="675" height="900" xmlns="http://www.w3.org/2000/svg" xmlns:xlink="http://www.w3.org/1999/xlink" version="1.1"><path d="M0 145L56.3 171.8C112.7 198.7 225.3 252.3 337.8 293C450.3 333.7 562.7 361.3 618.8 375.2L675 389L675 0L618.8 0C562.7 0 450.3 0 337.8 0C225.3 0 112.7 0 56.3 0L0 0Z" fill="#0ea5e9"></path><path d="M0 143L56.3 158.8C112.7 174.7 225.3 206.3 337.8 223.7C450.3 241 562.7 244 618.8 245.5L675 247L675 0L618.8 0C562.7 0 450.3 0 337.8 0C225.3 0 112.7 0 56.3 0L0 0Z" fill="#22d3ee"></path></svg>